<svg width="140" height="52" viewBox="0 0 140 52" fill="none" xmlns="http://www.w3.org/2000/svg">
<g clip-path="url(#clip0_1_138)">
<path d="M82.5876 37.9993C76.0288 42.5351 66.5222 44.9551 58.3373 44.9551C46.8606 44.9551 36.5287 40.9724 28.7122 34.3485C28.0981 33.8276 28.6484 33.1178 29.3853 33.5234C37.8208 38.1283 48.251 40.8987 59.0251 40.8987C66.2913 40.8987 74.2847 39.4882 81.6344 36.5611C82.7448 36.1186 83.6733 37.2433 82.5876 37.9993Z" fill="white"/>
<path d="M85.3141 35.0721C84.4789 34.0672 79.7723 34.5973 77.6597 34.8324C77.0161 34.9062 76.9179 34.3807 77.4976 34.0027C81.2462 31.5274 87.3972 32.2418 88.1145 33.0716C88.8318 33.9059 87.9278 39.6909 84.4052 42.452C83.8648 42.8761 83.3489 42.6502 83.5897 42.0879C84.3806 40.2348 86.1542 36.0816 85.3141 35.0721Z" fill="white"/>
<path d="M77.8072 16.5283V14.1221C77.8072 13.758 78.102 13.5137 78.4557 13.5137H89.9373C90.3058 13.5137 90.6005 13.7626 90.6005 14.1221V16.1826C90.5956 16.5283 90.2861 16.9801 89.7358 17.6945L83.7863 25.6645C85.9971 25.6138 88.3308 25.9226 90.3352 26.9828C90.7872 27.2225 90.91 27.5728 90.9444 27.9185V30.4861C90.9444 30.8364 90.5317 31.2466 90.0994 31.0346C86.567 29.2968 81.8751 29.1078 77.9694 31.053C77.5714 31.2558 77.1538 30.8502 77.1538 30.4999V28.0614C77.1538 27.6696 77.1587 27.0012 77.5763 26.4066L84.4692 17.1322H78.4705C78.102 17.1322 77.8072 16.8879 77.8072 16.5283Z" fill="white"/>
<path d="M35.9244 31.5414H32.4313C32.0972 31.5184 31.8319 31.2833 31.8074 30.9836V14.1634C31.8074 13.8269 32.1071 13.5595 32.4804 13.5595H35.7377C36.0767 13.5733 36.3469 13.8177 36.3715 14.1219V16.3207H36.4354C37.2853 14.1956 38.882 13.2046 41.0339 13.2046C43.2201 13.2046 44.5859 14.1956 45.5685 16.3207C46.4135 14.1956 48.3345 13.2046 50.393 13.2046C51.8571 13.2046 53.4587 13.7716 54.4364 15.0438C55.5418 16.4589 55.3158 18.5148 55.3158 20.3171L55.3109 30.9329C55.3109 31.2694 55.0112 31.5414 54.6378 31.5414H51.1496C50.8008 31.5184 50.5208 31.2556 50.5208 30.9329V22.0181C50.5208 21.3082 50.5895 19.5381 50.4225 18.8651C50.1621 17.7358 49.381 17.4177 48.3689 17.4177C47.5239 17.4177 46.6395 17.9478 46.2809 18.796C45.9223 19.6441 45.9566 21.0639 45.9566 22.0181V30.9329C45.9566 31.2694 45.657 31.5414 45.2836 31.5414H41.7954C41.4417 31.5184 41.1665 31.2556 41.1665 30.9329L41.1616 22.0181C41.1616 20.142 41.4908 17.3808 39.0097 17.3808C36.4992 17.3808 36.5975 20.0728 36.5975 22.0181V30.9329C36.5975 31.2694 36.2978 31.5414 35.9244 31.5414Z" fill="white"/>
<path d="M100.485 13.2046C105.668 13.2046 108.474 17.3808 108.474 22.6911C108.474 27.8215 105.374 31.8917 100.485 31.8917C95.3954 31.8917 92.6245 27.7155 92.6245 22.5113C92.6245 17.2748 95.4298 13.2046 100.485 13.2046ZM100.515 16.6387C97.9403 16.6387 97.7782 19.9299 97.7782 21.9812C97.7782 24.037 97.7438 28.4253 100.485 28.4253C103.192 28.4253 103.32 24.8852 103.32 22.7279C103.32 21.3082 103.256 19.6119 102.799 18.2659C102.406 17.0951 101.625 16.6387 100.515 16.6387Z" fill="white"/>
<path d="M115.195 31.5414H111.716C111.367 31.5184 111.087 31.2556 111.087 30.9329L111.083 14.1081C111.112 13.7992 111.402 13.5595 111.756 13.5595H114.993C115.298 13.5733 115.548 13.767 115.617 14.0297V16.6018H115.681C116.659 14.3017 118.029 13.2046 120.442 13.2046C122.009 13.2046 123.537 13.7347 124.519 15.1867C125.433 16.5327 125.433 18.796 125.433 20.4232V31.0113C125.394 31.3063 125.104 31.5414 124.76 31.5414H121.257C120.938 31.5184 120.673 31.2971 120.638 31.0113V21.8752C120.638 20.036 120.864 17.344 118.452 17.344C117.602 17.344 116.821 17.8787 116.433 18.69C115.941 19.7179 115.878 20.7412 115.878 21.8752V30.9329C115.873 31.2694 115.568 31.5414 115.195 31.5414Z" fill="white"/>
<path d="M68.6544 23.5071V22.7973C66.1292 22.7973 63.4614 23.3043 63.4614 26.0977C63.4614 27.5128 64.2426 28.4716 65.5838 28.4716C66.5664 28.4716 67.4458 27.9047 68.001 26.9828C68.6888 25.8488 68.6544 24.784 68.6544 23.5071ZM72.177 31.4955C71.9461 31.6891 71.612 31.7029 71.3516 31.5739C70.1922 30.6704 69.9858 30.2509 69.3471 29.3889C67.4311 31.2235 66.0751 31.7721 63.5892 31.7721C60.6512 31.7721 58.3618 30.0712 58.3618 26.6647C58.3618 24.005 59.8996 22.1934 62.0858 21.3084C63.9822 20.5248 66.6303 20.3865 68.6544 20.1698V19.7458C68.6544 18.9667 68.7183 18.0448 68.2319 17.3718C67.8045 16.768 66.9889 16.5191 66.2716 16.5191C64.9402 16.5191 63.7513 17.1598 63.4614 18.4873C63.4025 18.7824 63.1716 19.0728 62.8572 19.0866L59.4672 18.7455C59.1823 18.6856 58.8678 18.4689 58.9465 18.0587C59.7276 14.2051 63.4369 13.0435 66.758 13.0435C68.4579 13.0435 70.6786 13.4675 72.0198 14.6752C73.7197 16.1641 73.5575 18.1508 73.5575 20.3127V25.4201C73.5575 26.9551 74.2355 27.6281 74.8742 28.4578C75.1002 28.7528 75.1493 29.1078 74.8644 29.329C74.152 29.8868 72.8845 30.9239 72.1868 31.5047L72.177 31.4955Z" fill="white"/>
<path d="M22.8607 23.5071V22.7973C20.3355 22.7973 17.6677 23.3043 17.6677 26.0977C17.6677 27.5128 18.4489 28.4716 19.7901 28.4716C20.7727 28.4716 21.6521 27.9047 22.2073 26.9828C22.8951 25.8488 22.8607 24.784 22.8607 23.5071ZM26.3833 31.4955C26.1524 31.6891 25.8183 31.7029 25.5579 31.5739C24.3985 30.6704 24.1921 30.2509 23.5534 29.3889C21.6374 31.2235 20.2814 31.7721 17.7955 31.7721C14.8575 31.7721 12.5681 30.0712 12.5681 26.6647C12.5681 24.005 14.1059 22.1934 16.2921 21.3084C18.1885 20.5248 20.8366 20.3865 22.8607 20.1698V19.7458C22.8607 18.9667 22.9246 18.0448 22.4382 17.3718C22.0108 16.768 21.1952 16.5191 20.4779 16.5191C19.1465 16.5191 17.9576 17.1598 17.6677 18.4873C17.6088 18.7824 17.3779 19.0728 17.0635 19.0866L13.6735 18.7455C13.3886 18.6856 13.0741 18.4689 13.1528 18.0587C13.9339 14.2051 17.6432 13.0435 20.9643 13.0435C22.6642 13.0435 24.8849 13.4675 26.2261 14.6752C27.926 16.1641 27.7638 18.1508 27.7638 20.3127V25.4201C27.7638 26.9551 28.4418 27.6281 29.0805 28.4578C29.3065 28.7528 29.3556 29.1078 29.0707 29.329C28.3583 29.8868 27.0908 30.9239 26.3931 31.5047L26.3833 31.4955Z" fill="white"/>
</g>
<defs>
<clipPath id="clip0_1_138">
<rect width="113" height="32" fill="white" transform="translate(12.5 13)"/>
</clipPath>
</defs>
</svg>
