<svg width="87" height="70" viewBox="0 0 87 70" fill="none" xmlns="http://www.w3.org/2000/svg">
<g clip-path="url(#clip0_1_106)">
<path d="M23.3071 9.02441C16.8962 9.02441 11.7 14.076 11.7 20.3077V58.6923C11.7 64.924 16.8975 69.9756 23.3083 69.9756H63.0916C69.5025 69.9756 74.7 64.924 74.7 58.6923V20.3077C74.7 14.076 69.5025 9.02441 63.0916 9.02441H23.3071Z" fill="#14A800"/>
<path d="M57.0171 46.0485C53.0973 46.0485 50.5042 43.1217 49.7784 41.9831C50.7058 34.7896 53.4236 32.5222 57.0171 32.5222C60.5678 32.5222 63.3335 35.2687 63.3335 39.2854C63.3335 43.3021 60.5678 46.0485 57.0171 46.0485ZM57.0171 28.1069C50.6277 28.1069 47.0467 32.1382 46.0236 36.289C44.8594 34.1752 44.0026 31.3471 43.3272 28.7189H34.4959V39.3536C34.4959 43.218 32.684 46.0668 29.1295 46.0668C25.5751 46.0668 23.5389 43.218 23.5389 39.3549L23.5767 28.7189H18.4863V39.3536C18.4863 42.4585 19.5271 45.2732 21.4171 47.2822C23.3676 49.3521 26.0337 50.4455 29.127 50.4455C35.2733 50.4455 39.5611 45.8852 39.5611 39.3573V32.2114C40.2087 34.5629 41.7283 39.0855 44.6527 43.051L41.9211 58.0986H47.0971L48.9002 47.4297C49.4924 47.9039 50.1199 48.333 50.7776 48.7158C52.503 49.7767 54.4912 50.3699 56.5345 50.4334H56.5446C56.6971 50.4334 56.8521 50.4419 57.0096 50.4419C63.3461 50.4419 68.3924 45.695 68.3924 39.2964C68.3937 32.894 63.3524 28.1069 57.0171 28.1069Z" fill="white"/>
</g>
<defs>
<clipPath id="clip0_1_106">
<rect width="63" height="61" fill="white" transform="translate(11.7 9)"/>
</clipPath>
</defs>
</svg>
