<svg width="204" height="44" viewBox="0 0 204 44" fill="none" xmlns="http://www.w3.org/2000/svg">
<g clip-path="url(#clip0_1_136)">
<path d="M16.7179 22.1485C16.7179 21.6037 16.8709 21.158 17.1259 20.8113C17.4319 20.4647 17.7379 20.2666 18.1459 20.2666H29.7739C30.2839 20.2666 30.7429 20.4151 31.2019 20.6132C31.6609 20.8608 32.0179 21.2075 32.3749 21.6532C32.7319 22.0989 32.9869 22.5942 33.1399 23.1885C33.3439 23.7828 33.3949 24.4266 33.3949 25.0704V25.9618C33.3949 26.6056 33.2929 27.2494 33.1399 27.8437C32.9869 28.438 32.6809 28.9332 32.3749 29.3789C32.0179 29.8247 31.6609 30.1713 31.2019 30.4189C30.7429 30.6666 30.2839 30.7656 29.7739 30.7656H13.9639C13.1479 30.7656 12.3829 30.518 11.7709 29.9732C11.1079 29.4285 10.5469 28.7847 10.0879 27.9428C9.62891 27.1008 9.27191 26.2094 9.01691 25.1694C8.76191 24.1294 8.65991 23.1389 8.65991 22.198C8.65991 21.2075 8.81291 20.217 9.01691 19.177C9.27191 18.1866 9.62891 17.2456 10.1389 16.4532C10.5979 15.6113 11.2099 14.9675 11.9239 14.4228C12.5869 13.9275 13.4029 13.6304 14.2699 13.6304H31.9669C32.3749 13.6304 32.7319 13.8285 32.9869 14.1751C33.2929 14.5218 33.3949 14.9675 33.3949 15.5123C33.3949 16.0075 33.2419 16.5028 32.9869 16.8494C32.6809 17.1961 32.3749 17.3942 31.9669 17.3942H16.0039C15.2899 17.3942 14.7289 17.5428 14.2699 17.8894C13.8109 18.2361 13.5049 18.6323 13.2499 19.078C12.9949 19.5732 12.8419 20.0685 12.7399 20.6132C12.6379 21.158 12.5869 21.7028 12.5869 22.1485C12.5869 22.6437 12.6379 23.1389 12.7399 23.6837C12.8419 24.2285 12.9949 24.7732 13.2499 25.2189C13.5049 25.7142 13.8619 26.1104 14.2699 26.4075C14.6779 26.7542 14.7799 26.9028 15.4939 26.9028H29.7229C29.9779 26.9028 30.1819 26.7542 30.3859 26.457C30.5899 26.1599 30.6919 25.8132 30.6919 25.417C30.6919 25.0208 30.5899 24.6742 30.4369 24.377C30.2839 24.0799 30.0289 23.9313 29.7739 23.9313H18.1969C17.7889 23.9313 17.4319 23.7332 17.1769 23.3866C16.8709 23.1389 16.7179 22.6932 16.7179 22.1485Z" fill="#3A3CA1"/>
<path d="M85.5169 25.4666C86.0779 25.9618 86.6389 26.5561 87.2509 27.1504C87.4549 27.3485 87.6589 27.5961 87.8119 27.8932C87.9649 28.1904 88.0669 28.4875 88.0669 28.8342C88.0669 29.3789 87.9139 29.8247 87.6589 30.1713C87.3529 30.518 87.0469 30.7161 86.6389 30.7161C86.2819 30.7161 85.9249 30.518 85.6189 30.1713C84.8029 29.3789 83.9359 28.6361 83.0689 27.8932C82.2019 27.1504 81.2839 26.5066 80.3659 25.9618C79.4479 25.3675 78.4279 24.9218 77.4589 24.5751C76.4389 24.2285 75.4189 24.0799 74.2969 24.0799H68.7379C68.4829 24.1294 68.2279 24.278 68.0749 24.5751C67.9219 24.8228 67.8199 25.1694 67.8199 25.5656V28.8837C67.8199 29.4285 67.6669 29.8742 67.3609 30.2208C67.0549 30.5675 66.3919 30.7656 65.9839 30.7656C65.5759 30.7656 65.0659 30.5675 64.7599 30.2208C64.4539 29.8742 64.3519 29.4285 64.3519 28.8837V25.1199C64.3519 24.4761 64.3009 23.8818 64.3519 23.2875C64.4029 22.7923 64.1989 16.2551 64.3519 15.5618C64.4539 15.017 67.1059 15.017 67.5649 14.7199C68.0239 14.4723 67.5139 20.3161 68.0239 20.3161H84.1399C84.4459 20.3161 84.7009 20.1675 84.9559 19.9199C85.2109 19.6723 85.3129 19.3256 85.3129 18.8799C85.3129 18.4837 85.2109 18.137 84.9559 17.8399C84.7519 17.5428 84.4459 17.3942 84.1399 17.3942H65.8309C65.4229 17.3942 65.0659 17.1961 64.8109 16.8494C64.5049 16.5028 64.4029 16.0075 64.4029 15.5123C64.4029 14.9675 64.5559 14.5218 64.8109 14.1751C65.1169 13.8285 65.4229 13.6304 65.8309 13.6304H84.0379C84.5989 13.6304 85.1599 13.7789 85.6189 14.0266C86.1289 14.2742 86.5369 14.6704 86.9449 15.1161C87.3019 15.6113 87.6079 16.1561 87.8119 16.7504C88.0159 17.3942 88.1179 18.038 88.1179 18.7808C88.1179 19.5237 88.0159 20.217 87.8119 20.8113C87.6079 21.4551 87.3019 21.9999 86.9449 22.4456C86.5879 22.8913 86.1289 23.2875 85.6189 23.5351C85.1089 23.8323 84.5989 23.9313 84.0379 23.9313H83.9359C84.3949 24.4761 84.9559 24.9713 85.5169 25.4666Z" fill="#3A3CA1"/>
<path d="M118.871 22.1487C118.871 21.1582 118.973 20.1677 119.228 19.1277C119.483 18.1372 119.84 17.1963 120.35 16.4039C120.809 15.562 121.421 14.9182 122.084 14.3734C122.747 13.8782 123.563 13.5811 124.43 13.5811H142.127C142.535 13.5811 142.892 13.7791 143.147 14.1258C143.453 14.4725 143.555 14.9182 143.555 15.463C143.555 15.9582 143.402 16.4534 143.147 16.8001C142.841 17.1468 142.535 17.3449 142.127 17.3449H126.062C125.348 17.3449 124.787 17.4934 124.328 17.8401C123.92 18.1868 123.563 18.583 123.308 19.0287C123.053 19.5239 122.9 20.0191 122.798 20.5639C122.696 21.1087 122.645 21.6534 122.645 22.0992C122.645 22.5944 122.696 23.0896 122.798 23.6344C122.9 24.1792 123.053 24.7239 123.308 25.1696C123.563 25.6649 123.92 26.0611 124.328 26.3582C124.787 26.7049 124.838 26.8534 125.552 26.8534H142.127C142.535 26.8534 142.892 27.0515 143.147 27.3982C143.453 27.7449 143.555 28.1906 143.555 28.7353C143.555 29.2801 143.402 29.7258 143.147 30.0725C142.841 30.4192 142.535 30.6172 142.127 30.6172H124.124C123.308 30.6172 122.543 30.3696 121.931 29.8249C121.268 29.2801 120.707 28.6363 120.248 27.7944C119.789 26.9525 119.432 26.0611 119.177 25.0211C118.973 24.1296 118.871 23.1391 118.871 22.1487Z" fill="#3A3CA1"/>
<path d="M177.011 30.32C176.501 30.0228 176.042 29.6761 175.685 29.1809C175.328 28.7352 175.022 28.1409 174.767 27.5466C174.563 26.9028 174.41 26.259 174.41 25.5161V15.4628C174.41 14.9181 174.563 14.4723 174.818 14.1257C175.124 13.779 175.889 13.3828 176.297 13.3828C176.705 13.3828 177.572 13.7295 177.878 14.1257C178.184 14.4723 178.337 14.9181 178.337 15.4628V25.4666C178.337 25.8628 178.439 26.2095 178.694 26.5066C178.949 26.8038 179.204 26.9523 179.51 26.9523H196.748C197.156 26.9523 197.513 27.1504 197.768 27.4971C198.074 27.8438 198.176 28.2895 198.176 28.8342C198.176 29.379 198.023 29.8247 197.768 30.1714C197.462 30.5181 197.156 30.7161 196.748 30.7161H178.592C178.031 30.7161 177.521 30.5676 177.011 30.32Z" fill="#3A3CA1"/>
<path d="M40.1269 23.7334C40.2289 24.2782 40.3819 24.823 40.6369 25.2687C40.8919 25.7639 41.2489 26.1601 41.6569 26.4572C42.0649 26.8039 42.6769 26.9525 43.3909 26.9525H54.4579C55.1209 26.9525 55.7329 26.8039 56.1409 26.4572C56.5999 26.1106 56.9569 25.7144 57.2119 25.2687C57.4669 24.823 57.6199 24.2782 57.7219 23.7334C57.8239 23.1887 57.8749 22.6439 57.8749 22.1982V15.5125C57.8749 15.0172 58.0279 14.5715 58.2829 14.1753C58.5889 13.8287 59.0989 13.5811 59.5069 13.5811C59.9149 13.5811 60.5779 13.8287 60.8329 14.1753C61.1389 14.522 61.2409 14.9677 61.2409 15.5125V22.1487C61.2409 23.1391 61.1389 24.1296 60.8839 25.1696C60.6289 26.1601 60.2719 27.1011 59.7619 27.943C59.2519 28.7849 58.6909 29.4287 57.9769 29.9734C57.3139 30.5182 56.4979 30.7658 55.6309 30.7658H41.8099C40.9939 30.7163 40.2289 30.4192 39.6169 29.8744C38.9539 29.3296 38.3929 28.6858 37.9339 27.8439C37.4749 27.0515 37.1179 26.1106 36.9139 25.1201C36.6589 24.1296 36.5569 23.1392 36.5569 22.1982V15.5125C36.5569 15.0172 36.7099 14.5715 36.9649 14.1753C37.2199 13.8287 37.9339 13.6306 38.3419 13.6306C38.7499 13.6306 39.2599 13.8287 39.5659 14.1753C39.8719 14.522 39.9739 14.9677 39.9739 15.5125V22.1487C39.9739 22.6439 40.0249 23.1392 40.1269 23.7334Z" fill="#3A3CA1"/>
<path d="M94.5949 23.7334C94.6969 24.2782 94.8499 24.823 95.1049 25.2687C95.3599 25.7639 95.7169 26.1601 96.1249 26.4572C96.5329 26.8039 97.1449 26.9525 97.8589 26.9525H108.926C109.589 26.9525 110.201 26.8039 110.609 26.4572C111.068 26.1106 111.425 25.7144 111.68 25.2687C111.935 24.823 112.088 24.2782 112.19 23.7334C112.292 23.1887 112.343 22.6439 112.343 22.1982V15.5125C112.343 15.0172 112.496 14.5715 112.751 14.1753C113.057 13.8287 113.567 13.5811 113.975 13.5811C114.383 13.5811 115.046 13.8287 115.301 14.1753C115.607 14.522 115.709 14.9677 115.709 15.5125V22.1487C115.709 23.1391 115.607 24.1296 115.352 25.1696C115.097 26.1601 114.74 27.1011 114.23 27.943C113.72 28.7849 113.159 29.4287 112.445 29.9734C111.782 30.5182 110.966 30.7658 110.099 30.7658H96.2269C95.4109 30.7163 94.6459 30.4192 94.0339 29.8744C93.3709 29.3296 92.8099 28.6858 92.3509 27.8439C91.8919 27.0515 91.5349 26.1106 91.3309 25.1201C91.0759 24.1296 90.9739 23.1392 90.9739 22.1982V15.5125C90.9739 15.0172 91.1269 14.5715 91.3819 14.1753C91.6369 13.8287 92.3509 13.6306 92.7589 13.6306C93.1669 13.6306 93.6769 13.8287 93.9829 14.1753C94.2889 14.522 94.3909 14.9677 94.3909 15.5125V22.1487C94.4419 22.6439 94.4929 23.1392 94.5949 23.7334Z" fill="#3A3CA1"/>
<path d="M150.236 23.7334C150.338 24.2782 150.491 24.823 150.746 25.2687C151.001 25.7639 151.358 26.1601 151.766 26.4572C152.174 26.8039 152.786 26.9525 153.5 26.9525H164.567C165.23 26.9525 165.842 26.8039 166.25 26.4572C166.709 26.1106 167.066 25.7144 167.321 25.2687C167.576 24.823 167.729 24.2782 167.831 23.7334C167.933 23.1887 167.984 22.6439 167.984 22.1982V15.5125C167.984 15.0172 168.137 14.5715 168.392 14.1753C168.698 13.8287 169.208 13.5811 169.616 13.5811C170.024 13.5811 170.687 13.8287 170.942 14.1753C171.248 14.522 171.35 14.9677 171.35 15.5125V22.1487C171.35 23.1391 171.248 24.1296 170.993 25.1696C170.738 26.1601 170.381 27.1011 169.871 27.943C169.361 28.7849 168.8 29.4287 168.086 29.9734C167.423 30.5182 166.607 30.7658 165.74 30.7658H151.97C151.154 30.7163 150.389 30.4192 149.777 29.8744C149.114 29.3296 148.553 28.6858 148.094 27.8439C147.635 27.0515 147.278 26.1106 147.074 25.1201C146.819 24.1296 146.717 23.1392 146.717 22.1982V15.5125C146.717 15.0172 146.87 14.5715 147.125 14.1753C147.38 13.8287 148.094 13.6306 148.502 13.6306C148.91 13.6306 149.42 13.8287 149.726 14.1753C150.032 14.522 150.134 14.9677 150.134 15.5125V22.1487C150.083 22.6439 150.134 23.1392 150.236 23.7334Z" fill="#3A3CA1"/>
</g>
<defs>
<clipPath id="clip0_1_136">
<rect width="203" height="44" fill="white" transform="translate(0.5)"/>
</clipPath>
</defs>
</svg>
